<?xml version="1.0" encoding="UTF-8"?>
<!DOCTYPE svg PUBLIC "-//W3C//DTD SVG 1.1//EN" "http://www.w3.org/Graphics/SVG/1.1/DTD/svg11.dtd">
<svg xmlns="http://www.w3.org/2000/svg" version="1.1" width="714px" height="874px" style="shape-rendering:geometricPrecision; text-rendering:geometricPrecision; image-rendering:optimizeQuality; fill-rule:evenodd; clip-rule:evenodd" xmlns:xlink="http://www.w3.org/1999/xlink">
<g><path style="opacity:0.992" fill="#650093" d="M -0.5,-0.5 C 5.5,-0.5 11.5,-0.5 17.5,-0.5C 71.7192,8.87019 110.553,38.5369 134,88.5C 143.354,115.03 146.854,142.364 144.5,170.5C 192.833,170.5 241.167,170.5 289.5,170.5C 307.631,232.226 325.964,293.892 344.5,355.5C 335.007,363.509 325.174,371.176 315,378.5C 304.255,371.093 294.089,362.926 284.5,354C 243.463,324.438 200.463,321.105 155.5,344C 117.976,369.029 98.9765,404.362 98.5,450C 100.347,493.502 114.18,532.669 140,567.5C 152.391,585.397 166.558,601.897 182.5,617C 211.526,643.189 243.193,665.689 277.5,684.5C 278.331,678.193 278.831,671.859 279,665.5C 279.5,637.835 279.667,610.169 279.5,582.5C 263.096,582.955 246.763,582.455 230.5,581C 225.776,578.565 224.276,574.731 226,569.5C 226.471,567.754 227.138,566.087 228,564.5C 234.286,555.611 241.286,547.278 249,539.5C 287.396,500.603 326.229,462.27 365.5,424.5C 388.99,503.461 412.323,582.461 435.5,661.5C 422.042,658.526 408.709,659.026 395.5,663C 385.112,668.861 374.446,674.194 363.5,679C 345.552,682.492 327.552,685.492 309.5,688C 313.483,695.828 319.816,700.494 328.5,702C 334.833,702.667 341.167,702.667 347.5,702C 358.786,700.339 370.119,699.173 381.5,698.5C 386.235,698.469 390.901,698.969 395.5,700C 395.833,700.333 396.167,700.667 396.5,701C 361.52,709.299 326.186,711.633 290.5,708C 281.581,706.604 272.915,704.27 264.5,701C 252.256,695.043 239.922,689.376 227.5,684C 224.628,683.685 221.795,683.185 219,682.5C 217.72,682.613 216.887,683.28 216.5,684.5C 220.452,692.96 226.119,700.127 233.5,706C 282.198,740.762 336.532,756.762 396.5,754C 418.03,751.618 438.697,746.118 458.5,737.5C 468.232,768.365 477.566,799.365 486.5,830.5C 449.995,846.708 411.661,855.875 371.5,858C 252.263,864.114 154.097,821.947 77,731.5C 31.0208,676.521 5.18746,613.188 -0.5,541.5C -0.5,360.833 -0.5,180.167 -0.5,-0.5 Z"/></g>
<g><path style="opacity:0.996" fill="#6d0093" d="M 289.5,170.5 C 308.833,170.5 328.167,170.5 347.5,170.5C 363.655,224.121 379.655,277.788 395.5,331.5C 377.065,336.552 360.065,344.552 344.5,355.5C 325.964,293.892 307.631,232.226 289.5,170.5 Z"/></g>
<g><path style="opacity:0.993" fill="#730094" d="M 347.5,170.5 C 367.627,170.066 387.627,171.4 407.5,174.5C 422.964,227.559 438.631,280.559 454.5,333.5C 434.966,327.736 415.299,327.069 395.5,331.5C 379.655,277.788 363.655,224.121 347.5,170.5 Z"/></g>
<g><path style="opacity:0.985" fill="#790094" d="M 407.5,174.5 C 429.239,177.849 450.239,183.516 470.5,191.5C 498.183,283.583 525.85,375.583 553.5,467.5C 558.656,506.945 554.822,545.611 542,583.5C 539.997,588.84 537.497,593.84 534.5,598.5C 513.543,530.025 492.876,461.358 472.5,392.5C 491.525,411.692 511.025,430.359 531,448.5C 530.814,412.245 517.981,381.412 492.5,356C 480.86,346.683 468.193,339.183 454.5,333.5C 438.631,280.559 422.964,227.559 407.5,174.5 Z"/></g>
<g><path style="opacity:0.992" fill="#800194" d="M 470.5,191.5 C 500.5,201.571 527.833,216.238 552.5,235.5C 592.83,370.15 633.163,504.817 673.5,639.5C 662.333,668.185 647.333,694.519 628.5,718.5C 612.673,665.694 596.673,613.027 580.5,560.5C 587.977,505.696 579.144,453.696 554,404.5C 551.908,401.319 549.575,398.319 547,395.5C 549.491,419.42 551.658,443.42 553.5,467.5C 525.85,375.583 498.183,283.583 470.5,191.5 Z"/></g>
<g><path style="opacity:0.992" fill="#860295" d="M 552.5,235.5 C 585.479,258.479 613.479,286.479 636.5,319.5C 655.928,386.44 675.928,453.107 696.5,519.5C 696.77,561.147 689.103,601.147 673.5,639.5C 633.163,504.817 592.83,370.15 552.5,235.5 Z"/></g>
<g><path style="opacity:0.957" fill="#8b0295" d="M 636.5,319.5 C 678.775,379.22 698.775,445.887 696.5,519.5C 675.928,453.107 655.928,386.44 636.5,319.5 Z"/></g>
<g><path style="opacity:0.994" fill="#730094" d="M 472.5,392.5 C 492.876,461.358 513.543,530.025 534.5,598.5C 523.737,619.003 509.404,636.67 491.5,651.5C 464.428,561.952 437.762,472.285 411.5,382.5C 424.72,368.89 439.386,367.056 455.5,377C 461.362,382.033 467.029,387.199 472.5,392.5 Z"/></g>
<g><path style="opacity:0.995" fill="#6d0093" d="M 411.5,382.5 C 437.762,472.285 464.428,561.952 491.5,651.5C 485.709,656.234 479.709,660.734 473.5,665C 467.095,668.513 460.429,669.18 453.5,667C 447.557,664.851 441.557,663.018 435.5,661.5C 412.323,582.461 388.99,503.461 365.5,424.5C 374.661,414.505 384.328,405.005 394.5,396C 399.773,390.882 405.439,386.382 411.5,382.5 Z"/></g>
<g><path style="opacity:0.987" fill="#7a0094" d="M 580.5,560.5 C 596.673,613.027 612.673,665.694 628.5,718.5C 615.648,736.025 600.981,752.025 584.5,766.5C 572.988,728.12 561.322,689.787 549.5,651.5C 565.604,623.189 575.937,592.856 580.5,560.5 Z"/></g>
<g><path style="opacity:0.987" fill="#730094" d="M 549.5,651.5 C 561.322,689.787 572.988,728.12 584.5,766.5C 569.623,780.388 553.623,792.722 536.5,803.5C 527.036,770.442 517.369,737.442 507.5,704.5C 523.815,688.535 537.815,670.869 549.5,651.5 Z"/></g>
<g><path style="opacity:0.987" fill="#6d0093" d="M 507.5,704.5 C 517.369,737.442 527.036,770.442 536.5,803.5C 521.086,814.545 504.419,823.545 486.5,830.5C 477.566,799.365 468.232,768.365 458.5,737.5C 476.005,728.247 492.338,717.247 507.5,704.5 Z"/></g>
</svg>
